<svg width="30" height="30" viewBox="0 0 30 30" fill="none" xmlns="http://www.w3.org/2000/svg">
<g id="Frame">
<path id="Vector" fill-rule="evenodd" clip-rule="evenodd" d="M17.988 6.5625C18.0799 7.45031 17.7293 8.31938 17.2118 8.96625C16.6755 9.59531 15.8261 10.0941 14.9758 10.02C14.8652 9.16969 15.2908 8.26406 15.7708 7.71C16.3052 7.06219 17.2305 6.6 17.988 6.5625ZM15.9921 10.6284C16.5443 10.4109 17.2268 10.1409 17.9777 10.1869C18.4568 10.2234 19.8386 10.3706 20.7236 11.6794C20.7144 11.6858 20.705 11.6921 20.6955 11.6981C20.4677 11.8472 19.0849 12.7519 19.1018 14.5369C19.1186 16.6622 20.8511 17.4591 21.0846 17.5669C21.0932 17.5705 21.1017 17.5745 21.1099 17.5791L21.1043 17.5978C20.8642 18.3434 20.5188 19.0509 20.0786 19.6987C19.4524 20.6212 18.8065 21.525 17.7752 21.5428C17.2896 21.5522 16.9615 21.4116 16.6211 21.2653C16.263 21.1125 15.8908 20.9531 15.3068 20.9531C14.6936 20.9531 14.3036 21.1172 13.9286 21.2756C13.6043 21.4125 13.2911 21.5447 12.8552 21.5616C11.8615 21.5981 11.1058 20.5837 10.4796 19.6622C9.18958 17.8003 8.21271 14.4084 9.53927 12.1219C10.1843 10.9781 11.3636 10.26 12.634 10.2412C13.189 10.2319 13.7215 10.4409 14.1846 10.6247C14.5361 10.7634 14.8493 10.8872 15.1033 10.8872C15.3349 10.8872 15.6368 10.7681 15.9921 10.6284Z" fill="white"/>
</g>
</svg>
