<svg width="30" height="30" viewBox="0 0 30 30" fill="none" xmlns="http://www.w3.org/2000/svg">
<path d="M15.1069 16.4156V14.3663H22.0125C22.08 14.7234 22.1147 15.1462 22.1147 15.6037C22.1147 17.1412 21.6947 19.0416 20.34 20.3963C19.0219 21.7688 17.3391 22.5 15.1087 22.5C10.9753 22.5 7.5 19.1334 7.5 15C7.5 10.8666 10.9753 7.5 15.1087 7.5C17.3962 7.5 19.0247 8.39719 20.2481 9.56625L18.8025 11.0128C17.925 10.1897 16.7353 9.54937 15.1069 9.54937C12.0881 9.54937 9.7275 11.9822 9.7275 15C9.7275 18.0188 12.0881 20.4506 15.1069 20.4506C17.0644 20.4506 18.1791 19.665 18.8944 18.9506C19.4728 18.3713 19.8544 17.5444 20.0044 16.4137L15.1069 16.4156Z" fill="white"/>
</svg>
