<svg width="22" height="22" viewBox="0 0 22 22" fill="none" xmlns="http://www.w3.org/2000/svg">
<path d="M19.5952 17.1873C19.5952 17.2766 19.5094 17.5846 18.9863 18.0787C18.4999 18.5381 17.7747 19.0233 16.8851 19.4681C15.0989 20.3612 12.8466 20.9949 10.9751 20.9949C9.10355 20.9949 6.85125 20.3612 5.06508 19.4681C4.17549 19.0233 3.45022 18.5381 2.96387 18.0787C2.4407 17.5846 2.35498 17.2766 2.35498 17.1873C2.35498 16.4441 2.98359 15.5007 4.61855 14.6832C6.1934 13.8958 8.43937 13.3798 10.9751 13.3798C13.5108 13.3798 15.7567 13.8958 17.3316 14.6832C18.9666 15.5007 19.5952 16.4441 19.5952 17.1873Z" stroke="#141414" stroke-width="2.01"/>
<circle cx="10.9755" cy="5.50006" r="4.49506" stroke="#141414" stroke-width="2.01"/>
</svg>
