<svg width="15" height="15" viewBox="0 0 15 15" fill="none" xmlns="http://www.w3.org/2000/svg">
<g clip-path="url(#clip0_150_183)">
<path d="M13.0627 10.6215H1.74579L4.43766 13.3121L3.55141 14.1946L0.457662 11.1015C0.164738 10.8084 0.000183105 10.4111 0.000183105 9.99677C0.000183105 9.58245 0.164738 9.18509 0.457662 8.89208L3.55141 5.79771L4.43766 6.68146L1.75016 9.36896H13.0627C13.2323 9.38034 13.3996 9.3244 13.5283 9.21325C13.657 9.10211 13.7367 8.94472 13.7502 8.77521V1.83771C13.7366 1.6683 13.6568 1.51107 13.5281 1.40006C13.3995 1.28905 13.2322 1.23319 13.0627 1.24458H1.25016V-0.00541949H13.0627C13.5641 -0.0170037 14.0496 0.170715 14.4128 0.516577C14.776 0.862438 14.9872 1.33821 15.0002 1.83958V8.77771C14.9869 9.27885 14.7755 9.75431 14.4124 10.0999C14.0492 10.4455 13.5638 10.633 13.0627 10.6215V10.6215Z" fill="#141414"/>
</g>
<defs>
<clipPath id="clip0_150_183">
<rect width="15" height="15" fill="white" transform="matrix(1 0 0 -1 0 15)"/>
</clipPath>
</defs>
</svg>
