<svg width="20" height="20" viewBox="0 0 20 20" fill="none" xmlns="http://www.w3.org/2000/svg">
<g id="fi-rs-settings" clip-path="url(#clip0_504_3560)">
<g id="01 align center">
<path id="Vector" d="M12.5002 19.5C12.5002 19.7761 12.2763 20 12.0002 20H8.00019C7.72405 20 7.50019 19.7761 7.50019 19.5V17.0725C6.63124 16.7651 5.8264 16.3001 5.12602 15.7008L3.02258 16.9163C2.78336 17.0546 2.47738 16.9726 2.33932 16.7333L0.339252 13.2665C0.201244 13.0273 0.283311 12.7215 0.522546 12.5835L2.62519 11.3708C2.45861 10.4645 2.45861 9.53546 2.62519 8.62917L0.522546 7.4165C0.283311 7.27853 0.201244 6.97273 0.339252 6.73351L2.33932 3.26673C2.47738 3.02742 2.78336 2.94544 3.02258 3.08367L5.12602 4.29917C5.8264 3.69994 6.63124 3.23495 7.50019 2.9275V0.5C7.50019 0.223858 7.72405 0 8.00019 0H12.0002C12.2763 0 12.5002 0.223858 12.5002 0.5V2.9275C13.3691 3.23495 14.174 3.69994 14.8744 4.29917L16.9778 3.08367C17.217 2.94544 17.523 3.02742 17.6611 3.26673L19.6611 6.73351C19.7991 6.97273 19.7171 7.27853 19.4778 7.4165L17.3752 8.62917C17.5418 9.53546 17.5418 10.4645 17.3752 11.3708L19.4778 12.5835C19.7171 12.7215 19.7991 13.0273 19.6611 13.2665L17.661 16.7334C17.523 16.9726 17.2171 17.0546 16.9778 16.9165L14.8744 15.7017C14.1739 16.3006 13.3691 16.7653 12.5002 17.0725V19.5ZM9.16686 18.3333H10.8335V15.8108L11.4594 15.6492C12.486 15.3832 13.4205 14.8418 14.1619 14.0833L14.6144 13.6225L16.8002 14.885L17.6335 13.4417L15.4502 12.1808L15.6219 11.5592C15.9041 10.5366 15.9041 9.45672 15.6219 8.43417L15.4502 7.8125L17.6335 6.55167L16.8002 5.10833L14.6144 6.37417L14.1619 5.91667C13.4201 5.15945 12.4857 4.61918 11.4594 4.35417L10.8335 4.18917V1.66667H9.16686V4.18917L8.54102 4.35083C7.51435 4.61679 6.57986 5.15824 5.83852 5.91667L5.38602 6.3775L3.20019 5.11167L2.36686 6.555L4.55019 7.81583L4.37852 8.4375C4.09632 9.46005 4.09632 10.5399 4.37852 11.5625L4.55019 12.1842L2.36686 13.445L3.20019 14.8883L5.38602 13.6258L5.83852 14.0867C6.58026 14.8439 7.51471 15.3841 8.54102 15.6492L9.16686 15.8108V18.3333ZM10.0002 13.3333C9.34092 13.3333 8.69645 13.1378 8.14829 12.7716C7.60012 12.4053 7.17288 11.8847 6.92059 11.2756C6.6683 10.6665 6.60229 9.9963 6.7309 9.3497C6.85952 8.7031 7.17699 8.10915 7.64317 7.64298C8.10934 7.1768 8.70328 6.85933 9.34989 6.73072C9.99649 6.6021 10.6667 6.66811 11.2758 6.9204C11.8849 7.17269 12.4055 7.59994 12.7718 8.1481C13.138 8.69626 13.3335 9.34073 13.3335 10C13.3335 10.8841 12.9823 11.7319 12.3572 12.357C11.7321 12.9821 10.8842 13.3333 10.0002 13.3333ZM10.0002 8.33333C9.67055 8.33333 9.34832 8.43108 9.07424 8.61422C8.80016 8.79735 8.58654 9.05765 8.46039 9.36219C8.33424 9.66674 8.30124 10.0018 8.36555 10.3252C8.42986 10.6485 8.58859 10.9454 8.82168 11.1785C9.05477 11.4116 9.35174 11.5703 9.67504 11.6346C9.99834 11.699 10.3335 11.6659 10.638 11.5398C10.9425 11.4137 11.2028 11.2 11.386 10.926C11.5691 10.6519 11.6669 10.3296 11.6669 10C11.6669 9.55797 11.4913 9.13405 11.1787 8.82149C10.8661 8.50893 10.4422 8.33333 10.0002 8.33333Z" fill="#AAAAAA"/>
</g>
</g>
<defs>
<clipPath id="clip0_504_3560">
<rect width="20" height="20" fill="white"/>
</clipPath>
</defs>
</svg>
