<svg width="18" height="17" viewBox="0 0 18 17" fill="none" xmlns="http://www.w3.org/2000/svg">
<g id="fi-rs-pencil" clip-path="url(#clip0_483_3138)">
<g id="01 align center">
<path id="Vector" d="M16.7492 0.749901C16.2676 0.269083 15.6149 -0.000976562 14.9344 -0.000976562C14.2539 -0.000976562 13.6012 0.269083 13.1197 0.749901L0.5 13.3696V16.9991H4.1295L16.7492 4.3794C17.2298 3.89775 17.4998 3.2451 17.4998 2.56465C17.4998 1.88421 17.2298 1.23155 16.7492 0.749901ZM3.54583 15.5824H1.91667V13.9532L11.3446 4.5324L12.9738 6.16157L3.54583 15.5824ZM15.7476 3.37782L13.9718 5.15361L12.3462 3.52444L14.1213 1.75148C14.3373 1.53544 14.6303 1.41407 14.9358 1.41407C15.2414 1.41407 15.5344 1.53544 15.7504 1.75148C15.9665 1.96753 16.0878 2.26054 16.0878 2.56607C16.0878 2.8716 15.9665 3.16461 15.7504 3.38065L15.7476 3.37782Z" fill="#141414"/>
</g>
</g>
<defs>
<clipPath id="clip0_483_3138">
<rect width="17" height="17" fill="white" transform="translate(0.5)"/>
</clipPath>
</defs>
</svg>
