<svg width="108" height="29" viewBox="0 0 108 29" fill="none" xmlns="http://www.w3.org/2000/svg">
<path d="M2.675 5.875H5.65V8.875H2.675V5.875ZM2.675 24.325V10.55H5.65V24.2C5.65 27.575 4.825 28.375 1.75 28.375H0.75V26.075H1.3C2.525 26.075 2.675 25.75 2.675 24.325ZM11.1732 17.3C11.1732 20.4 12.8232 21.9 14.7232 21.9C16.6232 21.9 18.2732 20.4 18.2732 17.3C18.2732 14.2 16.6232 12.675 14.7232 12.675C12.8232 12.675 11.1732 14.2 11.1732 17.3ZM14.7232 10.25C17.9982 10.25 21.3482 12.45 21.3482 17.3C21.3482 22.175 17.9982 24.325 14.7232 24.325C11.4482 24.325 8.09824 22.175 8.09824 17.3C8.09824 12.45 11.4482 10.25 14.7232 10.25ZM32.0932 24V22.15C31.3182 23.55 29.9432 24.325 28.1182 24.325C24.9182 24.325 23.6182 22.225 23.6182 19.025V10.55H26.5932V18.3C26.5932 20.125 26.8432 21.9 29.0682 21.9C31.2932 21.9 32.0932 20.15 32.0932 17.725V10.55H35.0682V24H32.0932ZM45.7672 10.575V13.575C45.2672 13.525 44.7922 13.5 44.3422 13.5C42.4672 13.5 41.3922 14.25 41.3922 16.95V24H38.4172V10.55H41.3422V12.95C42.0672 11.45 43.3672 10.55 44.9922 10.525C45.2172 10.525 45.5422 10.55 45.7672 10.575ZM50.6207 10.55V12.425C51.3957 11.025 52.7957 10.25 54.6957 10.25C57.9457 10.25 59.2707 12.35 59.2707 15.55V24H56.2957V16.275C56.2957 14.45 56.0457 12.675 53.7457 12.675C51.4457 12.675 50.6207 14.425 50.6207 16.85V24H47.6457V10.55H50.6207ZM74.5174 18.125H64.4924C64.6924 20.625 66.4424 21.85 68.1424 21.85C69.7174 21.85 70.9174 21.25 71.4424 19.975H74.3674C73.7674 22.125 71.7174 24.325 68.2674 24.325C63.9424 24.325 61.4674 21.05 61.4674 17.175C61.4674 13.125 64.2424 10.25 68.0674 10.25C72.1924 10.25 74.7924 13.625 74.5174 18.125ZM68.0674 12.575C66.6674 12.575 64.7674 13.425 64.4924 15.95H71.4924C71.4174 13.85 69.8174 12.575 68.0674 12.575ZM89.2635 18.125H79.2385C79.4385 20.625 81.1885 21.85 82.8885 21.85C84.4635 21.85 85.6635 21.25 86.1885 19.975H89.1135C88.5135 22.125 86.4635 24.325 83.0135 24.325C78.6885 24.325 76.2135 21.05 76.2135 17.175C76.2135 13.125 78.9885 10.25 82.8135 10.25C86.9385 10.25 89.5385 13.625 89.2635 18.125ZM82.8135 12.575C81.4135 12.575 79.5135 13.425 79.2385 15.95H86.2385C86.1635 13.85 84.5635 12.575 82.8135 12.575Z" fill="#141414"/>
<path d="M98.1 13L96.53 10.27H95.37V13H93.66V5.75H96.45C98.33 5.75 99.74 6.19 99.74 7.99C99.74 9.06 99.15 9.67 98.32 9.99L100.11 13H98.1ZM96.5 7.19H95.37V8.83H96.5C97.31 8.83 97.93 8.7 97.93 8.01C97.93 7.34 97.31 7.19 96.5 7.19ZM100.688 5.75H102.398V10.08C102.398 11.14 102.648 11.73 103.838 11.73C105.038 11.73 105.248 11.05 105.248 9.98V5.75H106.958V9.84C106.958 12.07 106.098 13.13 103.838 13.13C101.668 13.13 100.688 12.29 100.688 9.9V5.75Z" fill="#141414"/>
</svg>
