<svg width="15" height="15" viewBox="0 0 15 15" fill="none" xmlns="http://www.w3.org/2000/svg">
<g clip-path="url(#clip0_150_479)">
<path d="M7.5 7.50016C7.99445 7.50016 8.4778 7.35353 8.88893 7.07883C9.30005 6.80413 9.62048 6.41368 9.8097 5.95687C9.99892 5.50005 10.0484 4.99738 9.95196 4.51243C9.8555 4.02748 9.6174 3.58202 9.26777 3.23239C8.91814 2.88276 8.47268 2.64466 7.98773 2.54819C7.50277 2.45173 7.00011 2.50124 6.54329 2.69046C6.08648 2.87968 5.69603 3.20011 5.42133 3.61123C5.14662 4.02235 5 4.5057 5 5.00016C5 5.6632 5.26339 6.29908 5.73223 6.76792C6.20107 7.23677 6.83696 7.50016 7.5 7.50016ZM7.5 3.75016C7.74723 3.75016 7.9889 3.82347 8.19446 3.96082C8.40002 4.09817 8.56024 4.29339 8.65485 4.5218C8.74946 4.75021 8.77421 5.00154 8.72598 5.24402C8.67775 5.4865 8.5587 5.70922 8.38388 5.88404C8.20907 6.05886 7.98634 6.17791 7.74386 6.22614C7.50139 6.27437 7.25005 6.24962 7.02165 6.15501C6.79324 6.0604 6.59802 5.90018 6.46066 5.69462C6.32331 5.48906 6.25 5.24738 6.25 5.00016C6.25 4.66864 6.3817 4.35069 6.61612 4.11627C6.85054 3.88185 7.16848 3.75016 7.5 3.75016ZM10 13.7689L15 14.9864V8.42703C14.9999 8.02445 14.8702 7.63261 14.6301 7.30946C14.39 6.9863 14.0523 6.749 13.6669 6.63266L12.3544 6.19516C12.4503 5.80532 12.4992 5.40538 12.5 5.00391C12.5 3.67782 11.9732 2.40605 11.0355 1.46837C10.0979 0.53069 8.82608 0.00390625 7.5 0.00390625C6.17392 0.00390625 4.90215 0.53069 3.96447 1.46837C3.02679 2.40605 2.5 3.67782 2.5 5.00391C2.50185 5.25761 2.52274 5.51083 2.5625 5.76141C2.27867 5.64825 1.97143 5.60637 1.66767 5.63944C1.36391 5.6725 1.07287 5.77949 0.820029 5.95105C0.567185 6.12262 0.360233 6.35353 0.217279 6.62358C0.0743244 6.89363 -0.000277007 7.1946 7.72901e-07 7.50016V13.5952L4.98938 15.0208L10 13.7689ZM4.84813 2.35266C5.55265 1.65813 6.50309 1.27014 7.49239 1.27321C8.48169 1.27627 9.4297 1.67015 10.1299 2.36904C10.8301 3.06792 11.2258 4.01519 11.2307 5.00449C11.2356 5.99378 10.8495 6.94495 10.1563 7.65078L7.5 10.2502L4.84813 7.65578C4.14492 6.95253 3.74986 5.99874 3.74986 5.00422C3.74986 4.0097 4.14492 3.05591 4.84813 2.35266V2.35266ZM1.25 7.50016C1.24921 7.39707 1.27432 7.29544 1.32302 7.20459C1.37173 7.11373 1.44247 7.03656 1.52875 6.98016C1.61901 6.92092 1.72299 6.8859 1.83069 6.87845C1.93839 6.87101 2.0462 6.8914 2.14375 6.93766L3.04 7.26141C3.27979 7.73626 3.59349 8.16999 3.96938 8.54641L7.5 12.0002L11.0356 8.54203C11.3833 8.19488 11.6781 7.79857 11.9106 7.36578L13.2963 7.82891C13.4268 7.86624 13.5416 7.94504 13.6233 8.0534C13.7051 8.16176 13.7493 8.29379 13.7494 8.42953V13.3977L10 12.4814L5.0125 13.7314L1.25 12.6539V7.50016Z" fill="#141414"/>
</g>
<defs>
<clipPath id="clip0_150_479">
<rect width="15" height="15" fill="white"/>
</clipPath>
</defs>
</svg>
