<svg width="22" height="22" viewBox="0 0 22 22" fill="none" xmlns="http://www.w3.org/2000/svg">
<g clip-path="url(#clip0_150_493)">
<path d="M21.3205 14.8501L18.9372 6.25999C18.4283 4.42246 17.3193 2.80796 15.7869 1.67344C14.2544 0.538923 12.3865 -0.0504099 10.4805 -0.00076358C8.57442 0.0488828 6.73973 0.734655 5.26842 1.94741C3.7971 3.16016 2.77372 4.83021 2.36113 6.69174L0.517717 14.9876C0.428519 15.3895 0.430694 15.8063 0.524084 16.2072C0.617473 16.6082 0.799692 16.9831 1.0573 17.3042C1.3149 17.6253 1.64132 17.8845 2.01247 18.0626C2.38362 18.2408 2.79003 18.3333 3.20172 18.3334H6.50813C6.71852 19.3695 7.28064 20.301 8.09923 20.9701C8.91782 21.6392 9.94256 22.0047 10.9998 22.0047C12.057 22.0047 13.0818 21.6392 13.9004 20.9701C14.719 20.301 15.2811 19.3695 15.4915 18.3334H18.6723C19.0959 18.3332 19.5137 18.2352 19.8932 18.0469C20.2727 17.8587 20.6035 17.5853 20.8599 17.2481C21.1164 16.9109 21.2914 16.5191 21.3715 16.1031C21.4515 15.6872 21.4344 15.2583 21.3215 14.8501H21.3205ZM10.9998 20.1667C10.4331 20.1644 9.88089 19.987 9.41883 19.6588C8.95676 19.3307 8.60738 18.8677 8.41847 18.3334H13.5811C13.3922 18.8677 13.0428 19.3307 12.5808 19.6588C12.1187 19.987 11.5665 20.1644 10.9998 20.1667V20.1667ZM19.401 16.138C19.3155 16.2514 19.2047 16.3432 19.0773 16.406C18.95 16.4689 18.8097 16.5011 18.6677 16.5001H3.20172C3.06446 16.5001 2.92895 16.4692 2.80521 16.4098C2.68147 16.3504 2.57264 16.264 2.48677 16.1569C2.40089 16.0498 2.34016 15.9248 2.30906 15.7911C2.27795 15.6575 2.27726 15.5185 2.30705 15.3845L4.15047 7.08866C4.47529 5.62768 5.27916 4.31721 6.4343 3.36557C7.58944 2.41393 9.02954 1.87573 10.5257 1.83654C12.0218 1.79734 13.4881 2.2594 14.6915 3.14926C15.8949 4.03911 16.7663 5.30569 17.1671 6.74766L19.5505 15.3377C19.5894 15.4736 19.5961 15.6166 19.5702 15.7555C19.5443 15.8944 19.4864 16.0254 19.401 16.138V16.138Z" fill="#141414"/>
</g>
<defs>
<clipPath id="clip0_150_493">
<rect width="22" height="22" fill="white"/>
</clipPath>
</defs>
</svg>
