<svg width="15" height="15" viewBox="0 0 15 15" fill="none" xmlns="http://www.w3.org/2000/svg">
<g clip-path="url(#clip0_150_185)">
<path d="M14.3375 0.661807C13.9126 0.237555 13.3367 -0.000732422 12.7363 -0.000732422C12.1358 -0.000732422 11.5599 0.237555 11.135 0.661807L0 11.7968V14.9993H3.2025L14.3375 3.86431C14.7616 3.43932 14.9998 2.86345 14.9998 2.26306C14.9998 1.66266 14.7616 1.08679 14.3375 0.661807V0.661807ZM2.6875 13.7493H1.25V12.3118L9.56875 3.99931L11.0063 5.43681L2.6875 13.7493ZM13.4537 2.98056L11.8869 4.54743L10.4525 3.10993L12.0187 1.54556C12.2094 1.35493 12.4679 1.24784 12.7375 1.24784C13.0071 1.24784 13.2656 1.35493 13.4563 1.54556C13.6469 1.73618 13.754 1.99472 13.754 2.26431C13.754 2.53389 13.6469 2.79243 13.4563 2.98306L13.4537 2.98056Z" fill="#141414"/>
</g>
<defs>
<clipPath id="clip0_150_185">
<rect width="15" height="15" fill="white"/>
</clipPath>
</defs>
</svg>
