<svg width="18" height="18" viewBox="0 0 18 18" fill="none" xmlns="http://www.w3.org/2000/svg">
<g clip-path="url(#clip0_0_3)">
<path d="M18 0H0V18H18V0Z" fill="#F2F2F2"/>
<path d="M12.2865 3.05031C11.3876 2.28847 10.4617 1.49816 9.5246 0.564059L8.99047 0.0336914L8.46612 0.564797C6.77915 2.25627 5.98212 4.8534 5.63604 6.41153C5.37114 6.00094 5.17458 5.55013 5.05399 5.07664L4.73713 3.85338L3.81575 4.71935C2.20138 6.23473 1.12493 7.73818 1.12493 10.1458C1.09392 13.7188 3.49756 16.8549 6.95591 17.7536C7.46234 17.8768 7.97928 17.952 8.4998 17.9783C8.6708 17.9907 9.16049 18.003 9.24441 17.9978C13.4872 17.8702 16.8595 14.392 16.856 10.1472C16.856 6.93064 14.7383 5.13279 12.2865 3.05031ZM9.13556 16.4899C9.05713 16.4967 8.98583 16.4974 8.90649 16.4967C7.50572 16.4538 6.39141 15.3077 6.388 13.9063C6.388 12.957 6.8971 12.4839 8.04927 11.5031C8.33973 11.2561 8.65568 10.9873 8.98808 10.6796C9.27932 10.9439 9.56229 11.1835 9.82357 11.4058C10.981 12.388 11.5851 12.9458 11.5851 13.9041C11.5825 15.2788 10.5082 16.413 9.13556 16.4899ZM12.8938 15.164L12.8788 15.1745C13.0132 14.7651 13.0819 14.3371 13.0825 13.9063C13.0825 12.2106 11.9699 11.2658 10.7931 10.2663C10.3761 9.91295 9.9456 9.54761 9.51588 9.11786L8.98583 8.58854L8.45652 9.11786C7.9714 9.60224 7.49676 10.0065 7.07826 10.3629C5.90435 11.3616 4.88992 12.2248 4.88992 13.9063C4.8915 14.3556 4.9674 14.8016 5.11453 15.2261C3.53482 14.0131 2.61281 12.1315 2.62227 10.1398C2.60997 8.82606 3.11843 7.56089 4.03647 6.62109C4.1946 6.94189 4.38205 7.2474 4.59647 7.53371C4.9165 7.96557 5.46258 8.16593 5.98599 8.04355C6.51808 7.92507 6.93176 7.50643 7.04384 6.97297C7.35733 5.25228 8.03531 3.61861 9.03228 2.18156C9.8221 2.93021 10.6045 3.59277 11.3104 4.19246C13.6552 6.18389 15.3532 7.6228 15.3532 10.1443C15.3569 12.1087 14.4487 13.9634 12.8938 15.164Z" fill="#141414"/>
</g>
<defs>
<clipPath id="clip0_0_3">
<rect width="18" height="18" fill="white"/>
</clipPath>
</defs>
</svg>
