<svg width="18" height="18" viewBox="0 0 18 18" fill="none" xmlns="http://www.w3.org/2000/svg">
<g clip-path="url(#clip0_154_1016)">
<path d="M16.4003 1.20928L13.1363 0.116528C12.702 -0.0309454 12.2327 -0.0401166 11.793 0.0902783L6.4035 1.56928L3.11625 0.175028C2.77442 0.0324315 2.40267 -0.023574 2.034 0.0119823C1.66533 0.0475386 1.31114 0.173557 1.00286 0.378853C0.694582 0.58415 0.441751 0.862375 0.266807 1.18884C0.0918629 1.5153 0.000215995 1.8799 0 2.25028L0 16.3158L5.9865 18.0265L12.0023 16.5265L18.0023 17.9875V3.36253C18.0019 2.87915 17.846 2.40872 17.5574 2.0209C17.2689 1.63308 16.8632 1.34849 16.4003 1.20928V1.20928ZM11.25 1.78828V15.1645L6.75 16.2895V2.97928L11.25 1.78828ZM1.5 2.25028C1.50026 2.12678 1.53101 2.00525 1.58952 1.89649C1.64804 1.78773 1.73251 1.6951 1.83543 1.62683C1.93835 1.55856 2.05654 1.51677 2.17949 1.50516C2.30245 1.49355 2.42637 1.51248 2.54025 1.56028L5.25 2.68603V16.2558L1.5 15.1848V2.25028ZM16.5 16.0728L12.75 15.1593V1.56928L15.9563 2.64178C16.1129 2.68657 16.2506 2.78113 16.3487 2.91117C16.4468 3.0412 16.4999 3.19964 16.5 3.36253V16.0728Z" fill="#FF933C"/>
</g>
<defs>
<clipPath id="clip0_154_1016">
<rect width="18" height="18" fill="white"/>
</clipPath>
</defs>
</svg>
