<svg width="18" height="18" viewBox="0 0 18 18" fill="none" xmlns="http://www.w3.org/2000/svg">
<g clip-path="url(#clip0_154_1025)">
<path d="M9 0C11.2156 0.00670229 13.3513 0.828405 15 2.3085V0H16.5V3.85725C16.4996 4.22651 16.3527 4.58053 16.0916 4.84163C15.8305 5.10274 15.4765 5.2496 15.1073 5.25H11.25V3.75H14.3408C13.1218 2.51518 11.5119 1.74195 9.7861 1.56242C8.0603 1.38289 6.32571 1.80822 4.87871 2.76571C3.4317 3.72321 2.36209 5.15346 1.85261 6.81209C1.34314 8.47072 1.42543 10.2548 2.08541 11.8595C2.7454 13.4642 3.94213 14.7899 5.47112 15.6101C7.00012 16.4304 8.76649 16.6942 10.4684 16.3566C12.1704 16.019 13.7023 15.1008 14.8024 13.759C15.9025 12.4173 16.5025 10.7351 16.5 9H18C18 10.78 17.4722 12.5201 16.4832 14.0001C15.4943 15.4802 14.0887 16.6337 12.4442 17.3149C10.7996 17.9961 8.99002 18.1743 7.24419 17.8271C5.49836 17.4798 3.89472 16.6226 2.63604 15.364C1.37737 14.1053 0.520204 12.5016 0.172937 10.7558C-0.17433 9.00998 0.00389957 7.20038 0.685088 5.55585C1.36628 3.91131 2.51983 2.50571 3.99987 1.51677C5.47991 0.527841 7.21997 0 9 0V0Z" fill="#141414"/>
<path d="M8.24976 5.24951V9.31001L10.7195 11.7798L11.78 10.7193L9.74975 8.68901V5.24951H8.24976Z" fill="#141414"/>
</g>
<defs>
<clipPath id="clip0_154_1025">
<rect width="18" height="18" fill="white"/>
</clipPath>
</defs>
</svg>
