<svg width="15" height="15" viewBox="0 0 15 15" fill="none" xmlns="http://www.w3.org/2000/svg">
<g id="fi-rs-map-marker-home">
<path id="Vector" d="M7.50027 0.00439453C6.26368 0.00453411 5.05492 0.3715 4.02695 1.05886C2.99899 1.74621 2.19802 2.72306 1.72543 3.86578C1.25283 5.0085 1.12983 6.26574 1.372 7.47839C1.61418 8.69104 2.21064 9.8046 3.0859 10.6781L7.50027 14.9956L11.9196 10.6731C12.7935 9.79903 13.3885 8.68545 13.6296 7.47319C13.8706 6.26093 13.7468 5.00441 13.2738 3.86251C12.8008 2.72062 11.9998 1.7446 10.9721 1.05787C9.94447 0.371145 8.73627 0.00453487 7.50027 0.00439453ZM11.0409 9.78439L7.50027 13.25L3.96465 9.78939C3.26563 9.09033 2.78952 8.19974 2.5965 7.23017C2.40349 6.26061 2.50222 5.25558 2.88023 4.34211C3.25824 3.42864 3.89855 2.64773 4.72025 2.09806C5.54195 1.5484 6.50815 1.25466 7.49674 1.25396C8.48534 1.25326 9.45195 1.54564 10.2744 2.09414C11.0969 2.64264 11.7383 3.42265 12.1176 4.33558C12.4969 5.24852 12.5971 6.2534 12.4054 7.22324C12.2138 8.19308 11.7389 9.08435 11.0409 9.78439ZM10.0115 4.63939L8.44902 3.44564C8.17632 3.23827 7.84318 3.12599 7.50059 3.12599C7.158 3.12599 6.82485 3.23827 6.55215 3.44564L4.98965 4.63939C4.79918 4.78557 4.64476 4.97347 4.53826 5.18864C4.43175 5.40382 4.376 5.64055 4.37527 5.88064V8.75002H10.6253V5.88064C10.6245 5.64062 10.5688 5.40395 10.4624 5.1888C10.3561 4.97364 10.2018 4.7857 10.0115 4.63939ZM9.37527 7.50002H8.12527V6.25002H6.87527V7.50002H5.62527V5.88064C5.62527 5.83213 5.63657 5.78428 5.65827 5.74089C5.67996 5.6975 5.71146 5.65975 5.75027 5.63064L7.31277 4.43752C7.36731 4.39576 7.43408 4.37313 7.50277 4.37313C7.57146 4.37313 7.63824 4.39576 7.69277 4.43752L9.25527 5.63127C9.29408 5.66038 9.32559 5.69812 9.34728 5.74152C9.36898 5.78491 9.38027 5.83276 9.38027 5.88127L9.37527 7.50002Z" fill="#141414"/>
</g>
</svg>
