<svg width="15" height="15" viewBox="0 0 15 15" fill="none" xmlns="http://www.w3.org/2000/svg">
<g id="fi-rs-settings" clip-path="url(#clip0_220_3240)">
<g id="01 align center">
<path id="Vector" d="M9.37502 14.5C9.37502 14.7761 9.15116 15 8.87502 15H6.12502C5.84888 15 5.62502 14.7761 5.62502 14.5V12.8044C4.9733 12.5738 4.36968 12.225 3.84439 11.7756L2.37512 12.6247C2.1359 12.7629 1.82992 12.6809 1.69186 12.4416L0.316791 10.0582C0.178783 9.81894 0.26085 9.51314 0.500085 9.37516L1.96877 8.52813C1.84384 7.8484 1.84384 7.1516 1.96877 6.47187L0.500084 5.62484C0.26085 5.48686 0.178783 5.18106 0.316791 4.94185L1.69186 2.5584C1.82992 2.31909 2.1359 2.23711 2.37512 2.37534L3.84439 3.22438C4.36968 2.77495 4.9733 2.42621 5.62502 2.19563V0.5C5.62502 0.223858 5.84888 0 6.12502 0H8.87502C9.15116 0 9.37502 0.223858 9.37502 0.5V2.19563C10.0267 2.42621 10.6304 2.77495 11.1556 3.22438L12.6249 2.37534C12.8641 2.23711 13.1701 2.31909 13.3082 2.5584L14.6832 4.94185C14.8213 5.18106 14.7392 5.48686 14.5 5.62484L13.0313 6.47187C13.1562 7.1516 13.1562 7.8484 13.0313 8.52813L14.5 9.37516C14.7392 9.51314 14.8213 9.81894 14.6832 10.0582L13.3081 12.4417C13.1701 12.681 12.8642 12.763 12.625 12.6248L11.1556 11.7762C10.6303 12.2254 10.0267 12.574 9.37502 12.8044V14.5ZM6.87502 13.75H8.12502V11.8581L8.59439 11.7369C9.3644 11.5374 10.0653 11.1313 10.6213 10.5625L10.9606 10.2169L12.6 11.1637L13.225 10.0812L11.5875 9.13562L11.7163 8.66938C11.9279 7.90246 11.9279 7.09254 11.7163 6.32563L11.5875 5.85938L13.225 4.91375L12.6 3.83125L10.9606 4.78063L10.6213 4.4375C10.065 3.86959 9.36413 3.46439 8.59439 3.26562L8.12502 3.14188V1.25H6.87502V3.14188L6.40564 3.26313C5.63564 3.4626 4.93477 3.86868 4.37877 4.4375L4.03939 4.78312L2.40002 3.83375L1.77502 4.91625L3.41252 5.86187L3.28377 6.32812C3.07212 7.09504 3.07212 7.90496 3.28377 8.67188L3.41252 9.13813L1.77502 10.0838L2.40002 11.1662L4.03939 10.2194L4.37877 10.565C4.93507 11.1329 5.63591 11.5381 6.40564 11.7369L6.87502 11.8581V13.75ZM7.50002 10C7.00557 10 6.52222 9.85338 6.11109 9.57867C5.69997 9.30397 5.37954 8.91352 5.19032 8.45671C5.0011 7.99989 4.95159 7.49723 5.04806 7.01227C5.14452 6.52732 5.38262 6.08186 5.73225 5.73223C6.08188 5.3826 6.52734 5.1445 7.01229 5.04804C7.49725 4.95157 7.99991 5.00108 8.45673 5.1903C8.91354 5.37952 9.30399 5.69995 9.57869 6.11107C9.8534 6.5222 10 7.00555 10 7.5C10 8.16304 9.73663 8.79893 9.26779 9.26777C8.79895 9.73661 8.16306 10 7.50002 10ZM7.50002 6.25C7.25279 6.25 7.01112 6.32331 6.80556 6.46066C6.6 6.59801 6.43978 6.79324 6.34517 7.02165C6.25056 7.25005 6.22581 7.50139 6.27404 7.74386C6.32227 7.98634 6.44132 8.20907 6.61614 8.38388C6.79095 8.5587 7.01368 8.67775 7.25616 8.72598C7.49863 8.77421 7.74997 8.74946 7.97837 8.65485C8.20678 8.56024 8.402 8.40002 8.53936 8.19446C8.67671 7.9889 8.75002 7.74723 8.75002 7.5C8.75002 7.16848 8.61832 6.85054 8.3839 6.61612C8.14948 6.3817 7.83154 6.25 7.50002 6.25Z" fill="#141414"/>
</g>
</g>
<defs>
<clipPath id="clip0_220_3240">
<rect width="15" height="15" fill="white"/>
</clipPath>
</defs>
</svg>
