<svg width="15" height="15" viewBox="0 0 15 15" fill="none" xmlns="http://www.w3.org/2000/svg">
<g id="fi-rs-sign-out-alt" clip-path="url(#clip0_220_3245)">
<path id="Vector" d="M14.227 6.39453L11.1332 3.30078L10.2501 4.18703L12.9376 6.87453H4.13574V8.12453H12.9376L10.2501 10.812L11.1339 11.6958L14.2276 8.60203C14.3728 8.45694 14.4879 8.28467 14.5664 8.09507C14.645 7.90547 14.6854 7.70226 14.6854 7.49703C14.6854 7.29181 14.645 7.08859 14.5664 6.89899C14.4879 6.7094 14.3728 6.53713 14.2276 6.39203L14.227 6.39453Z" fill="#141414"/>
<path id="Vector_2" d="M6.5475 13.125C6.5475 13.2908 6.48165 13.4497 6.36444 13.5669C6.24723 13.6842 6.08826 13.75 5.9225 13.75H1.875C1.70924 13.75 1.55027 13.6842 1.43306 13.5669C1.31585 13.4497 1.25 13.2908 1.25 13.125V1.875C1.25 1.70924 1.31585 1.55027 1.43306 1.43306C1.55027 1.31585 1.70924 1.25 1.875 1.25H5.9225C6.08826 1.25 6.24723 1.31585 6.36444 1.43306C6.48165 1.55027 6.5475 1.70924 6.5475 1.875V5.20813H7.7975V1.875C7.7975 1.37772 7.59996 0.900805 7.24833 0.549175C6.89669 0.197544 6.41978 0 5.9225 0L1.875 0C1.37772 0 0.900805 0.197544 0.549175 0.549175C0.197544 0.900805 0 1.37772 0 1.875L0 13.125C0 13.6223 0.197544 14.0992 0.549175 14.4508C0.900805 14.8025 1.37772 15 1.875 15H5.9225C6.41978 15 6.89669 14.8025 7.24833 14.4508C7.59996 14.0992 7.7975 13.6223 7.7975 13.125V9.79187H6.5475V13.125Z" fill="#141414"/>
</g>
<defs>
<clipPath id="clip0_220_3245">
<rect width="15" height="15" fill="white"/>
</clipPath>
</defs>
</svg>
