<svg width="15" height="15" viewBox="0 0 15 15" fill="none" xmlns="http://www.w3.org/2000/svg">
<g id="fi-rr-bookmark" clip-path="url(#clip0_220_3234)">
<path id="Vector" d="M12.5857 15C12.3545 14.9994 12.1257 14.9529 11.9125 14.8633C11.6994 14.7738 11.5061 14.6428 11.3438 14.4781L7.50008 10.6569L3.65633 14.4806C3.40947 14.7311 3.09288 14.9014 2.74784 14.9692C2.40279 15.0371 2.0453 14.9995 1.72195 14.8613C1.3954 14.7299 1.11604 14.5031 0.920364 14.2106C0.724684 13.918 0.621775 13.5732 0.625077 13.2213V3.125C0.625077 2.2962 0.954317 1.50134 1.54037 0.915291C2.12642 0.32924 2.92128 0 3.75008 0L11.2501 0C11.6605 0 12.0668 0.0808305 12.446 0.237876C12.8251 0.394922 13.1696 0.625108 13.4598 0.915291C13.75 1.20547 13.9802 1.54997 14.1372 1.92911C14.2942 2.30826 14.3751 2.71462 14.3751 3.125V13.2213C14.3786 13.5729 14.276 13.9175 14.0808 14.21C13.8856 14.5026 13.6068 14.7295 13.2807 14.8613C13.0606 14.9533 12.8243 15.0005 12.5857 15ZM3.75008 1.25C3.2528 1.25 2.77588 1.44754 2.42425 1.79918C2.07262 2.15081 1.87508 2.62772 1.87508 3.125V13.2213C1.87485 13.3254 1.9055 13.4273 1.96314 13.514C2.02078 13.6008 2.10284 13.6685 2.19895 13.7086C2.29505 13.7487 2.40089 13.7595 2.5031 13.7395C2.60531 13.7195 2.6993 13.6696 2.7732 13.5963L7.06258 9.33313C7.17968 9.21672 7.33809 9.15138 7.5032 9.15138C7.66832 9.15138 7.82673 9.21672 7.94383 9.33313L12.2282 13.595C12.3021 13.6684 12.3961 13.7182 12.4983 13.7382C12.6005 13.7582 12.7064 13.7475 12.8025 13.7073C12.8986 13.6672 12.9806 13.5995 13.0383 13.5128C13.0959 13.426 13.1266 13.3241 13.1263 13.22V3.125C13.1263 2.62772 12.9288 2.15081 12.5772 1.79918C12.2255 1.44754 11.7486 1.25 11.2513 1.25H3.75008Z" fill="#141414"/>
</g>
<defs>
<clipPath id="clip0_220_3234">
<rect width="15" height="15" fill="white"/>
</clipPath>
</defs>
</svg>
