<svg width="15" height="15" viewBox="0 0 15 15" fill="none" xmlns="http://www.w3.org/2000/svg">
<g id="User">
<g id="Account">
<path id="Ellipse 3" d="M13.3608 11.7183C13.3608 11.7791 13.3024 11.9892 12.9457 12.3261C12.614 12.6393 12.1195 12.9701 11.513 13.2734C10.2952 13.8823 8.7595 14.3144 7.48347 14.3144C6.20743 14.3144 4.67177 13.8823 3.45393 13.2734C2.84738 12.9701 2.35288 12.6393 2.02128 12.3261C1.66458 11.9892 1.60613 11.7791 1.60613 11.7183C1.60613 11.2116 2.03472 10.5683 3.14947 10.011C4.22323 9.47408 5.75457 9.12224 7.48347 9.12224C9.21236 9.12224 10.7437 9.47408 11.8175 10.011C12.9322 10.5683 13.3608 11.2116 13.3608 11.7183Z" stroke="#141414" stroke-width="1.37045"/>
<circle id="Ellipse 2" cx="7.48392" cy="3.75004" r="3.06481" stroke="#141414" stroke-width="1.37045"/>
</g>
</g>
</svg>
