<svg width="18" height="18" viewBox="0 0 18 18" fill="none" xmlns="http://www.w3.org/2000/svg">
<g clip-path="url(#clip0_174_934)">
<path d="M15.1028 18C14.8254 17.9992 14.5508 17.9435 14.295 17.836C14.0393 17.7285 13.8073 17.5714 13.6126 17.3738L9.00009 12.7883L4.38759 17.3768C4.09136 17.6773 3.71146 17.8816 3.29741 17.9631C2.88335 18.0446 2.45436 17.9994 2.06634 17.8335C1.67448 17.6759 1.33925 17.4038 1.10444 17.0527C0.869621 16.7016 0.746131 16.2879 0.750092 15.8655V3.75C0.750092 2.75544 1.14518 1.80161 1.84844 1.09835C2.5517 0.395088 3.50553 0 4.50009 0L13.5001 0C13.9926 0 14.4802 0.0969966 14.9352 0.285452C15.3901 0.473907 15.8035 0.75013 16.1517 1.09835C16.5 1.44657 16.7762 1.85997 16.9646 2.31494C17.1531 2.76991 17.2501 3.25754 17.2501 3.75V15.8655C17.2543 16.2875 17.1312 16.701 16.897 17.052C16.6627 17.4031 16.3281 17.6754 15.9368 17.8335C15.6727 17.944 15.3892 18.0006 15.1028 18ZM4.50009 1.5C3.90336 1.5 3.33106 1.73705 2.9091 2.15901C2.48715 2.58097 2.25009 3.15326 2.25009 3.75V15.8655C2.24982 15.9905 2.2866 16.1127 2.35577 16.2168C2.42494 16.3209 2.52341 16.4022 2.63874 16.4503C2.75406 16.4985 2.88107 16.5114 3.00372 16.4874C3.12637 16.4634 3.23916 16.4036 3.32784 16.3155L8.47509 11.1998C8.61562 11.0601 8.8057 10.9817 9.00384 10.9817C9.20198 10.9817 9.39207 11.0601 9.53259 11.1998L14.6738 16.314C14.7625 16.4021 14.8753 16.4619 14.998 16.4859C15.1206 16.5099 15.2476 16.497 15.363 16.4488C15.4783 16.4007 15.5767 16.3194 15.6459 16.2153C15.7151 16.1112 15.7519 15.989 15.7516 15.864V3.75C15.7516 3.15326 15.5145 2.58097 15.0926 2.15901C14.6706 1.73705 14.0983 1.5 13.5016 1.5H4.50009Z" fill="#F95858"/>
</g>
<defs>
<clipPath id="clip0_174_934">
<rect width="18" height="18" fill="white"/>
</clipPath>
</defs>
</svg>
