<svg width="18" height="18" viewBox="0 0 18 18" fill="none" xmlns="http://www.w3.org/2000/svg">
<g clip-path="url(#clip0_174_782)">
<path d="M13.1252 0.687866C12.2807 0.701002 11.4546 0.936756 10.7303 1.37132C10.006 1.80588 9.40923 2.42387 9.00021 3.16287C8.59119 2.42387 7.99441 1.80588 7.27014 1.37132C6.54587 0.936756 5.71975 0.701002 4.87521 0.687866C3.52892 0.746359 2.26049 1.33531 1.34705 2.32604C0.433607 3.31677 -0.0506 4.62876 0.000212859 5.97537C0.000212859 11.0566 8.21721 16.9254 8.56671 17.1744L9.00021 17.4811L9.43371 17.1744C9.78321 16.9269 18.0002 11.0566 18.0002 5.97537C18.051 4.62876 17.5668 3.31677 16.6534 2.32604C15.7399 1.33531 14.4715 0.746359 13.1252 0.687866V0.687866ZM9.00021 15.6346C6.56046 13.8121 1.50021 9.33462 1.50021 5.97537C1.44894 5.0264 1.77499 4.09566 2.40724 3.38614C3.03948 2.67662 3.92664 2.24588 4.87521 2.18787C5.82379 2.24588 6.71094 2.67662 7.34319 3.38614C7.97544 4.09566 8.30148 5.0264 8.25021 5.97537H9.75021C9.69894 5.0264 10.025 4.09566 10.6572 3.38614C11.2895 2.67662 12.1766 2.24588 13.1252 2.18787C14.0738 2.24588 14.9609 2.67662 15.5932 3.38614C16.2254 4.09566 16.5515 5.0264 16.5002 5.97537C16.5002 9.33612 11.44 13.8121 9.00021 15.6346Z" fill="#141414"/>
</g>
<defs>
<clipPath id="clip0_174_782">
<rect width="18" height="18" fill="white"/>
</clipPath>
</defs>
</svg>
