<svg width="22" height="22" viewBox="0 0 22 22" fill="none" xmlns="http://www.w3.org/2000/svg">
<g id="fi-rr-menu-dots" clip-path="url(#clip0_220_2787)">
<path id="Vector" d="M1.83333 12.8337C2.84586 12.8337 3.66667 12.0128 3.66667 11.0003C3.66667 9.9878 2.84586 9.16699 1.83333 9.16699C0.820811 9.16699 0 9.9878 0 11.0003C0 12.0128 0.820811 12.8337 1.83333 12.8337Z" fill="#141414"/>
<path id="Vector_2" d="M11.0001 12.8337C12.0126 12.8337 12.8334 12.0128 12.8334 11.0003C12.8334 9.9878 12.0126 9.16699 11.0001 9.16699C9.98756 9.16699 9.16675 9.9878 9.16675 11.0003C9.16675 12.0128 9.98756 12.8337 11.0001 12.8337Z" fill="#141414"/>
<path id="Vector_3" d="M20.1666 12.8337C21.1791 12.8337 21.9999 12.0128 21.9999 11.0003C21.9999 9.9878 21.1791 9.16699 20.1666 9.16699C19.1541 9.16699 18.3333 9.9878 18.3333 11.0003C18.3333 12.0128 19.1541 12.8337 20.1666 12.8337Z" fill="#141414"/>
</g>
<defs>
<clipPath id="clip0_220_2787">
<rect width="22" height="22" fill="white"/>
</clipPath>
</defs>
</svg>
