<svg width="18" height="18" viewBox="0 0 18 18" fill="none" xmlns="http://www.w3.org/2000/svg">
<g clip-path="url(#clip0_174_965)">
<path d="M2.13688 17.6625C2.54642 17.8375 2.99919 17.8851 3.43615 17.7989C3.8731 17.7127 4.27394 17.4969 4.58638 17.1795L9.00013 12.7897L13.4139 17.1795C13.6197 17.3883 13.8648 17.5542 14.1352 17.6676C14.4055 17.7811 14.6957 17.8397 14.9889 17.8403C15.2902 17.8394 15.5884 17.779 15.8664 17.6625C16.2793 17.4954 16.6322 17.2077 16.879 16.837C17.1259 16.4662 17.2552 16.0296 17.2501 15.5842V3.75C17.2489 2.7558 16.8535 1.80267 16.1505 1.09966C15.4475 0.396661 14.4943 0.00119089 13.5001 0L4.50013 0C3.50593 0.00119089 2.5528 0.396661 1.8498 1.09966C1.14679 1.80267 0.751322 2.7558 0.750131 3.75V15.5842C0.745291 16.03 0.875063 16.4668 1.12248 16.8376C1.36989 17.2084 1.72344 17.4959 2.13688 17.6625V17.6625Z" fill="#F95858"/>
</g>
<defs>
<clipPath id="clip0_174_965">
<rect width="18" height="18" fill="white"/>
</clipPath>
</defs>
</svg>
