<svg width="18" height="18" viewBox="0 0 18 18" fill="none" xmlns="http://www.w3.org/2000/svg">
<g clip-path="url(#clip0_174_962)">
<path d="M13.1252 0.687866C12.2807 0.701002 11.4546 0.936756 10.7303 1.37132C10.006 1.80588 9.40923 2.42387 9.00021 3.16287C8.59119 2.42387 7.99441 1.80588 7.27014 1.37132C6.54587 0.936756 5.71975 0.701002 4.87521 0.687866C3.52892 0.746359 2.26049 1.33531 1.34705 2.32604C0.433607 3.31677 -0.0506 4.62876 0.000212859 5.97537C0.000212859 11.0566 8.21721 16.9254 8.56671 17.1744L9.00021 17.4811L9.43371 17.1744C9.78321 16.9269 18.0002 11.0566 18.0002 5.97537C18.051 4.62876 17.5668 3.31677 16.6534 2.32604C15.7399 1.33531 14.4715 0.746359 13.1252 0.687866V0.687866Z" fill="#F95858"/>
</g>
<defs>
<clipPath id="clip0_174_962">
<rect width="18" height="18" fill="white"/>
</clipPath>
</defs>
</svg>
